<svg width="91" height="81" viewBox="0 0 91 81" fill="none" xmlns="http://www.w3.org/2000/svg">
<path fill-rule="evenodd" clip-rule="evenodd" d="M28.8654 18.7325C25.2758 17.3307 21.3239 17.153 17.623 18.2269C13.9221 19.3008 10.6791 21.5662 8.3973 24.6716C6.11552 27.777 4.92257 31.5487 5.00356 35.4015C5.08456 39.2542 6.43498 42.9725 8.84525 45.9792C11.2555 48.986 14.5909 51.1131 18.3336 52.0305C22.0764 52.9479 26.0174 52.6043 29.5449 51.0529C33.0724 49.5015 35.9892 46.8292 37.8426 43.4506C39.6961 40.072 40.3825 36.1761 39.7954 32.3675C39.6946 31.7121 39.8583 31.0435 40.2505 30.5088C40.6427 29.974 41.2312 29.617 41.8867 29.5162C42.5421 29.4155 43.2107 29.5792 43.7454 29.9714C44.2801 30.3635 44.6371 30.9521 44.7379 31.6075C45.4919 36.5042 44.6086 41.5128 42.2252 45.8561C39.8417 50.1995 36.0913 53.6348 31.5559 55.6288C27.0206 57.6229 21.9539 58.0643 17.142 56.8845C12.3302 55.7047 8.04225 52.9697 4.94365 49.1039C1.84505 45.2381 0.109026 40.4576 0.00496638 35.5043C-0.0990932 30.551 1.43463 25.7019 4.36814 21.7094C7.30165 17.7168 11.4709 14.8042 16.229 13.4233C20.987 12.0425 26.0678 12.2707 30.6829 14.0725C30.9929 14.1888 31.2767 14.3654 31.5179 14.5923C31.7591 14.8191 31.9528 15.0916 32.0878 15.394C32.2228 15.6963 32.2964 16.0224 32.3043 16.3534C32.3122 16.6844 32.2543 17.0137 32.134 17.3221C32.0136 17.6306 31.8332 17.912 31.6032 18.1502C31.3731 18.3883 31.0981 18.5784 30.794 18.7093C30.4899 18.8403 30.1629 18.9096 29.8318 18.9131C29.5007 18.9167 29.1722 18.8544 28.8654 18.73V18.7325Z" fill="#F08BB4"/>
<path fill-rule="evenodd" clip-rule="evenodd" d="M20.0005 77.5325V57.5325C20.0005 56.8694 20.2639 56.2335 20.7327 55.7647C21.2016 55.2959 21.8374 55.0325 22.5005 55.0325C23.1635 55.0325 23.7994 55.2959 24.2683 55.7647C24.7371 56.2335 25.0005 56.8694 25.0005 57.5325V77.5325C25.0005 78.1955 24.7371 78.8314 24.2683 79.3002C23.7994 79.7691 23.1635 80.0325 22.5005 80.0325C21.8374 80.0325 21.2016 79.7691 20.7327 79.3002C20.2639 78.8314 20.0005 78.1955 20.0005 77.5325Z" fill="#F08BB4"/>
<path fill-rule="evenodd" clip-rule="evenodd" d="M12.5005 65.0325C12.5005 64.3695 12.7639 63.7336 13.2327 63.2647C13.7016 62.7959 14.3374 62.5325 15.0005 62.5325H30.0005C30.6635 62.5325 31.2994 62.7959 31.7683 63.2647C32.2371 63.7336 32.5005 64.3695 32.5005 65.0325C32.5005 65.6956 32.2371 66.3314 31.7683 66.8003C31.2994 67.2691 30.6635 67.5325 30.0005 67.5325H15.0005C14.3374 67.5325 13.7016 67.2691 13.2327 66.8003C12.7639 66.3314 12.5005 65.6956 12.5005 65.0325ZM57.2555 18.19C54.485 17.4079 51.5643 17.3213 48.7523 17.938C45.9403 18.5546 43.3238 19.8555 41.1349 21.7253C38.9459 23.595 37.252 25.9759 36.2033 28.6569C35.1547 31.338 34.7836 34.2363 35.123 37.095C35.1636 37.4219 35.1391 37.7536 35.0511 38.071C34.9631 38.3884 34.8132 38.6853 34.61 38.9446C34.4069 39.2039 34.1545 39.4205 33.8674 39.582C33.5803 39.7434 33.2641 39.8466 32.937 39.8854C32.6099 39.9243 32.2784 39.8982 31.9614 39.8085C31.6445 39.7188 31.3484 39.5674 31.0901 39.3629C30.8319 39.1584 30.6166 38.9049 30.4566 38.617C30.2966 38.329 30.1952 38.0123 30.158 37.685C29.5739 32.7651 30.63 27.7899 33.1625 23.5316C35.695 19.2733 39.5622 15.9699 44.164 14.1341C48.7658 12.2983 53.8449 12.0327 58.6131 13.3785C63.3812 14.7244 67.5719 17.6064 70.5347 21.5774C73.4975 25.5484 75.0667 30.3862 74.999 35.3402C74.9312 40.2942 73.2302 45.0874 70.1599 48.9758C67.0896 52.8643 62.8217 55.6306 58.0185 56.8455C53.2153 58.0604 48.1454 57.656 43.5955 55.695C43.2939 55.5652 43.0209 55.3772 42.792 55.1418C42.5631 54.9065 42.3828 54.6283 42.2614 54.3233C42.0162 53.7072 42.0258 53.019 42.288 52.41C42.5502 51.801 43.0436 51.3211 43.6597 51.0759C44.2758 50.8307 44.964 50.8403 45.573 51.1025C47.7737 52.0563 50.1469 52.5475 52.5453 52.5458C54.9438 52.5441 57.3163 52.0495 59.5156 51.0926C61.715 50.1357 63.6941 48.737 65.3303 46.9833C66.9665 45.2296 68.2249 43.1584 69.0272 40.8981C69.8295 38.6378 70.1586 36.2367 69.9943 33.8439C69.8299 31.4511 69.1755 29.1176 68.0717 26.9882C66.9678 24.8588 65.4381 22.9791 63.5775 21.4656C61.7168 19.9521 59.565 18.8372 57.2555 18.19V18.19Z" fill="#5B8FF9"/>
<path fill-rule="evenodd" clip-rule="evenodd" d="M66.9829 23.0499C66.5143 22.5811 66.251 21.9453 66.251 21.2824C66.251 20.6195 66.5143 19.9837 66.9829 19.5149L85.7329 0.76493C85.9636 0.526154 86.2394 0.335697 86.5444 0.204675C86.8494 0.0736524 87.1775 0.00468792 87.5094 0.00180338C87.8414 -0.00108117 88.1706 0.0621738 88.4778 0.187876C88.7851 0.313578 89.0642 0.499211 89.2989 0.733943C89.5337 0.968674 89.7193 1.2478 89.845 1.55504C89.9707 1.86229 90.0339 2.19148 90.0311 2.52343C90.0282 2.85538 89.9592 3.18343 89.8282 3.48844C89.6972 3.79345 89.5067 4.06931 89.2679 4.29993L70.5179 23.0499C70.0491 23.5186 69.4134 23.7819 68.7504 23.7819C68.0875 23.7819 67.4518 23.5186 66.9829 23.0499V23.0499Z" fill="#5B8FF9"/>
<path fill-rule="evenodd" clip-rule="evenodd" d="M87.3105 17.5325C86.9821 17.5283 86.6579 17.4594 86.3562 17.3298C86.0545 17.2002 85.7813 17.0125 85.5521 16.7773C85.323 16.5422 85.1424 16.2642 85.0208 15.9592C84.8991 15.6543 84.8387 15.3283 84.843 15L84.968 5.065L75.033 5.19C74.3699 5.19862 73.7306 4.94349 73.2557 4.48075C72.7807 4.018 72.5091 3.38554 72.5005 2.7225C72.4918 2.05946 72.747 1.42015 73.2097 0.945214C73.6724 0.470278 74.3049 0.198619 74.968 0.189999L90.033 0L89.843 15.0625C89.839 15.391 89.7704 15.7156 89.641 16.0175C89.5116 16.3195 89.3239 16.593 89.0887 16.8224C88.8535 17.0518 88.5754 17.2326 88.2702 17.3545C87.9651 17.4763 87.639 17.5368 87.3105 17.5325V17.5325Z" fill="#5B8FF9"/>
<rect x="12.5005" y="62.5325" width="20" height="5" rx="2.5" fill="#F08BB4"/>
</svg>
