<svg width="500" height="500" viewBox="0 0 500 500" fill="none" xmlns="http://www.w3.org/2000/svg">
<path d="M500 382.398H0V382.648H500V382.398Z" fill="#EBEBEB"/>
<path d="M89.5 389.211H52.46V389.461H89.5V389.211Z" fill="#EBEBEB"/>
<path d="M240 394.621H169V394.871H240V394.621Z" fill="#EBEBEB"/>
<path d="M145.67 389.328H94.9199V389.578H145.67V389.328Z" fill="#EBEBEB"/>
<path d="M455.45 396.809H406.78V397.059H455.45V396.809Z" fill="#EBEBEB"/>
<path d="M402.33 396.809H370.36V397.059H402.33V396.809Z" fill="#EBEBEB"/>
<path d="M339.22 392.59H277.21V392.84H339.22V392.59Z" fill="#EBEBEB"/>
<path d="M237 337.8H43.91C42.3973 337.797 40.9475 337.195 39.8788 336.124C38.8102 335.053 38.21 333.603 38.21 332.09V60.66C38.2231 59.156 38.8292 57.718 39.8964 56.6582C40.9637 55.5985 42.4059 55.0026 43.91 55H237C238.514 55 239.967 55.6016 241.038 56.6724C242.108 57.7433 242.71 59.1956 242.71 60.71V332.09C242.71 333.604 242.108 335.057 241.038 336.128C239.967 337.198 238.514 337.8 237 337.8ZM43.91 55.2C42.4636 55.2026 41.0774 55.7791 40.0556 56.8027C39.0338 57.8264 38.46 59.2136 38.46 60.66V332.09C38.46 333.536 39.0338 334.924 40.0556 335.947C41.0774 336.971 42.4636 337.547 43.91 337.55H237C238.447 337.547 239.834 336.971 240.858 335.948C241.881 334.924 242.457 333.537 242.46 332.09V60.66C242.457 59.2127 241.881 57.8255 240.858 56.8021C239.834 55.7787 238.447 55.2026 237 55.2H43.91Z" fill="#EBEBEB"/>
<path d="M453.31 337.8H260.21C258.696 337.797 257.246 337.195 256.175 336.125C255.105 335.054 254.503 333.604 254.5 332.09V60.66C254.516 59.1551 255.124 57.7171 256.193 56.6576C257.262 55.5981 258.705 55.0025 260.21 55H453.31C454.812 55.0052 456.252 55.6022 457.317 56.6617C458.382 57.7212 458.987 59.1578 459 60.66V332.09C459 333.601 458.401 335.05 457.335 336.121C456.268 337.191 454.821 337.795 453.31 337.8ZM260.21 55.2C258.763 55.2026 257.375 55.7787 256.352 56.8021C255.329 57.8255 254.753 59.2127 254.75 60.66V332.09C254.753 333.537 255.329 334.924 256.352 335.948C257.375 336.971 258.763 337.547 260.21 337.55H453.31C454.757 337.547 456.145 336.971 457.168 335.948C458.191 334.924 458.767 333.537 458.77 332.09V60.66C458.767 59.2127 458.191 57.8255 457.168 56.8021C456.145 55.7787 454.757 55.2026 453.31 55.2H260.21Z" fill="#EBEBEB"/>
<path d="M203.43 179.809L443.88 179.809V72.0586L203.43 72.0586V179.809Z" fill="#E6E6E6"/>
<path d="M198.42 179.809L441.55 179.809V72.0586L198.42 72.0586V179.809Z" fill="#F0F0F0"/>
<path d="M203.43 189.141L443.88 189.141V179.811L203.43 179.811V189.141Z" fill="#E6E6E6"/>
<path d="M190.05 189.141L433.18 189.141V179.811L190.05 179.811V189.141Z" fill="#F0F0F0"/>
<path d="M434.51 172.78V79.0898L205.44 79.0898V172.78H434.51Z" fill="#FAFAFA"/>
<path d="M421.55 172.79L380.3 79.0898H360.83L402.08 172.79H421.55Z" fill="white"/>
<path d="M431.26 165.792C431.392 165.792 431.52 165.739 431.613 165.645C431.707 165.552 431.76 165.424 431.76 165.292V83.6719C431.76 83.5393 431.707 83.4121 431.613 83.3183C431.52 83.2246 431.392 83.1719 431.26 83.1719C431.127 83.1719 431 83.2246 430.906 83.3183C430.812 83.4121 430.76 83.5393 430.76 83.6719V165.292C430.76 165.424 430.812 165.552 430.906 165.645C431 165.739 431.127 165.792 431.26 165.792Z" fill="#F0F0F0"/>
<path d="M397.9 172.79L356.64 79.0898H349.05L390.3 172.79H397.9Z" fill="white"/>
<path d="M206.34 172.78V79.0898H205.45V172.78H206.34Z" fill="#E6E6E6"/>
<path opacity="0.6" d="M196.75 89.6881H437.21L437.85 81.8281H197.4L196.75 89.6881Z" fill="#EBEBEB"/>
<path opacity="0.6" d="M196.75 102.59H437.21L437.85 94.7305H197.4L196.75 102.59Z" fill="#EBEBEB"/>
<path opacity="0.6" d="M196.75 115.489H437.21L437.85 107.629H197.4L196.75 115.489Z" fill="#EBEBEB"/>
<path opacity="0.6" d="M196.75 128.391H437.21L437.85 120.531H197.4L196.75 128.391Z" fill="#EBEBEB"/>
<path opacity="0.6" d="M196.75 141.29H437.21L437.85 133.43H197.4L196.75 141.29Z" fill="#EBEBEB"/>
<path opacity="0.6" d="M196.75 154.188H437.21L437.85 146.328H197.4L196.75 154.188Z" fill="#EBEBEB"/>
<path d="M132.36 378.73H150.97L150.97 221.45H132.36L132.36 378.73Z" fill="#E0E0E0"/>
<path d="M66.2999 382.379H147.4V378.719H66.2999V382.379Z" fill="#F0F0F0"/>
<path d="M132.37 221.441H62.73V378.721H132.37V221.441Z" fill="#F5F5F5"/>
<path d="M129.72 252.941H65.3599V283.181H129.72V252.941Z" fill="white"/>
<path d="M97.5499 264.829C99.8639 264.829 101.74 262.953 101.74 260.639C101.74 258.325 99.8639 256.449 97.5499 256.449C95.2358 256.449 93.3599 258.325 93.3599 260.639C93.3599 262.953 95.2358 264.829 97.5499 264.829Z" fill="#F5F5F5"/>
<path d="M129.72 224.648H65.3599V246.958H129.72V224.648Z" fill="#F0F0F0"/>
<path d="M129.72 289.16H65.3599V371.49H129.72V289.16Z" fill="#F0F0F0"/>
<path d="M78.9399 224.648H65.3599V246.958H78.9399V224.648Z" fill="#E0E0E0"/>
<path d="M78.9399 289.16H65.3599V371.49H78.9399V289.16Z" fill="#E0E0E0"/>
<path d="M133.53 383.762H204.21L204.21 246.272H133.53V383.762Z" fill="#F5F5F5"/>
<path d="M133.52 383.762H139.35L139.35 246.272H133.52L133.52 383.762Z" fill="#F0F0F0"/>
<path d="M361.51 250.191H198.76V272.271H361.51V250.191Z" fill="#E6E6E6"/>
<path d="M361.51 295.59H198.76V317.67H361.51V295.59Z" fill="#F0F0F0"/>
<path d="M353.67 246.27H133.53V256.58H353.67V246.27Z" fill="#F0F0F0"/>
<path d="M353.67 383.762H424.35V246.272H353.67V383.762Z" fill="#F5F5F5"/>
<path d="M353.67 383.762H359.5V246.272H353.67V383.762Z" fill="#F0F0F0"/>
<path d="M274.11 246.27H289.36L285.65 216.59H270.4L274.11 246.27Z" fill="#F0F0F0"/>
<path d="M270.74 246.27H285.99L282.28 216.59H267.03L270.74 246.27Z" fill="#F5F5F5"/>
<path d="M268.88 231.43H284.13L282.28 216.59H267.03L268.88 231.43Z" fill="#F0F0F0"/>
<path d="M324.92 227.879H217.05C216.838 227.879 216.628 227.834 216.434 227.747C216.241 227.66 216.068 227.533 215.927 227.374C215.786 227.215 215.681 227.029 215.617 226.826C215.554 226.623 215.535 226.41 215.56 226.199L223.88 159.689C223.924 159.327 224.099 158.995 224.372 158.753C224.644 158.512 224.996 158.379 225.36 158.379H333.23C333.442 158.379 333.652 158.423 333.845 158.511C334.038 158.598 334.21 158.725 334.35 158.884C334.49 159.043 334.595 159.23 334.657 159.433C334.719 159.635 334.737 159.849 334.71 160.059L326.4 226.569C326.356 226.93 326.181 227.263 325.909 227.505C325.636 227.746 325.284 227.879 324.92 227.879Z" fill="#F0F0F0"/>
<path d="M323.32 227.879H215.44C215.232 227.874 215.026 227.825 214.838 227.735C214.65 227.646 214.482 227.517 214.347 227.359C214.211 227.201 214.11 227.016 214.05 226.816C213.99 226.616 213.973 226.406 214 226.199L222.31 159.689C222.356 159.327 222.533 158.994 222.808 158.752C223.082 158.511 223.435 158.378 223.8 158.379H331.63C331.842 158.379 332.051 158.423 332.245 158.511C332.438 158.598 332.61 158.725 332.75 158.884C332.89 159.043 332.995 159.23 333.057 159.433C333.119 159.635 333.137 159.849 333.11 160.059L324.8 226.569C324.756 226.93 324.581 227.263 324.309 227.505C324.036 227.746 323.684 227.879 323.32 227.879Z" fill="#F5F5F5"/>
<path d="M217.44 224.201L225.22 162.001C225.234 161.9 225.285 161.808 225.362 161.742C225.439 161.676 225.538 161.64 225.64 161.641H329.22C329.279 161.642 329.337 161.655 329.39 161.68C329.443 161.705 329.491 161.74 329.529 161.784C329.568 161.829 329.597 161.881 329.614 161.937C329.632 161.993 329.637 162.052 329.63 162.111L321.85 224.361C321.838 224.461 321.789 224.552 321.713 224.619C321.638 224.685 321.54 224.721 321.44 224.721H217.86C217.795 224.723 217.731 224.709 217.672 224.682C217.613 224.655 217.562 224.615 217.521 224.565C217.48 224.514 217.452 224.455 217.438 224.392C217.424 224.329 217.424 224.263 217.44 224.201Z" fill="#E6E6E6"/>
<path d="M259.33 243.488H279.22C279.549 243.487 279.874 243.551 280.178 243.677C280.481 243.803 280.757 243.989 280.988 244.222C281.218 244.456 281.401 244.733 281.523 245.038C281.645 245.343 281.706 245.67 281.7 245.998V246.308H256.86V245.998C256.855 245.671 256.915 245.345 257.037 245.041C257.158 244.736 257.339 244.459 257.569 244.226C257.799 243.992 258.073 243.807 258.376 243.68C258.678 243.553 259.002 243.488 259.33 243.488Z" fill="#F5F5F5"/>
<path d="M281.3 243.488H293.2C293.525 243.488 293.846 243.552 294.145 243.676C294.445 243.8 294.717 243.982 294.947 244.212C295.176 244.441 295.358 244.713 295.482 245.013C295.606 245.313 295.67 245.634 295.67 245.958V246.268H278.82V245.998C278.815 245.67 278.875 245.343 278.997 245.038C279.12 244.733 279.302 244.456 279.533 244.222C279.764 243.989 280.039 243.803 280.342 243.677C280.646 243.551 280.972 243.487 281.3 243.488Z" fill="#F0F0F0"/>
<path d="M229.41 246.272H306.21L308.28 242.012H239.4L229.41 246.272Z" fill="#F5F5F5"/>
<path d="M297.76 246.272H310.44L312.16 242.012H299.47L297.76 246.272Z" fill="#F0F0F0"/>
<path d="M210 241.121H198.44C197.763 241.12 197.092 241.252 196.466 241.51C195.84 241.768 195.271 242.148 194.792 242.626C194.312 243.104 193.932 243.673 193.673 244.298C193.413 244.923 193.28 245.594 193.28 246.271H215.14C215.14 244.907 214.599 243.599 213.635 242.633C212.671 241.668 211.364 241.124 210 241.121Z" fill="#F0F0F0"/>
<path d="M59.4902 77.3305L59.4902 184.48H137.53V77.3305H59.4902Z" fill="#F0F0F0"/>
<path d="M63.5799 180.391H133.44V81.4106L63.5799 81.4106L63.5799 180.391Z" fill="white"/>
<path d="M110.93 174.749C111.356 174.628 111.716 174.343 111.931 173.957C112.147 173.571 112.2 173.115 112.08 172.689L88.1402 88.2089C88.0191 87.7835 87.7342 87.4235 87.348 87.2079C86.9618 86.9923 86.5059 86.9387 86.0802 87.0589C85.8685 87.1188 85.6707 87.22 85.4981 87.3566C85.3256 87.4932 85.1818 87.6625 85.0749 87.8549C84.968 88.0472 84.9002 88.2588 84.8754 88.4775C84.8506 88.6961 84.8692 88.9175 84.9302 89.1289L108.86 173.599C108.92 173.811 109.021 174.009 109.158 174.181C109.294 174.354 109.464 174.497 109.656 174.604C109.849 174.711 110.06 174.779 110.279 174.804C110.497 174.829 110.719 174.81 110.93 174.749Z" fill="#F5F5F5"/>
<path d="M250 427.562C357.082 427.562 443.89 422.494 443.89 416.242C443.89 409.99 357.082 404.922 250 404.922C142.917 404.922 56.1099 409.99 56.1099 416.242C56.1099 422.494 142.917 427.562 250 427.562Z" fill="#F5F5F5"/>
<path d="M324.3 90.4883H199.98C191.259 90.4883 184.19 97.5577 184.19 106.278V400.028C184.19 408.749 191.259 415.818 199.98 415.818H324.3C333.021 415.818 340.09 408.749 340.09 400.028V106.278C340.09 97.5577 333.021 90.4883 324.3 90.4883Z" fill="#407BFF"/>
<path d="M338.75 145.977H337.33C335.502 145.977 334.02 147.458 334.02 149.287V197.707C334.02 199.535 335.502 201.017 337.33 201.017H338.75C340.578 201.017 342.06 199.535 342.06 197.707V149.287C342.06 147.458 340.578 145.977 338.75 145.977Z" fill="#407BFF"/>
<path d="M184.51 156.77H182.07C180.524 156.77 179.27 158.023 179.27 159.57V175.55C179.27 177.096 180.524 178.35 182.07 178.35H184.51C186.056 178.35 187.31 177.096 187.31 175.55V159.57C187.31 158.023 186.056 156.77 184.51 156.77Z" fill="#407BFF"/>
<path d="M277.67 86.9883H252.11V87.9883H277.67V86.9883Z" fill="#407BFF"/>
<path d="M288.23 86.9883H282.67V87.9883H288.23V86.9883Z" fill="#407BFF"/>
<path d="M321.67 90.4883H197.35C188.629 90.4883 181.56 97.5577 181.56 106.278V400.028C181.56 408.749 188.629 415.818 197.35 415.818H321.67C330.391 415.818 337.46 408.749 337.46 400.028V106.278C337.46 97.5577 330.391 90.4883 321.67 90.4883Z" fill="#407BFF"/>
<path d="M332.91 109.008H186.1C184.405 109.008 183.03 110.382 183.03 112.078V394.758C183.03 396.453 184.405 397.828 186.1 397.828H332.91C334.606 397.828 335.98 396.453 335.98 394.758V112.078C335.98 110.382 334.606 109.008 332.91 109.008Z" fill="white"/>
<path opacity="0.05" d="M301.7 123.219H208.89C200.606 123.219 193.89 129.934 193.89 138.219V272.969C193.89 281.253 200.606 287.969 208.89 287.969H301.7C309.984 287.969 316.7 281.253 316.7 272.969V138.219C316.7 129.934 309.984 123.219 301.7 123.219Z" fill="#407BFF"/>
<path opacity="0.05" d="M273.59 208C272.267 208 270.956 208.261 269.733 208.767C268.51 209.274 267.399 210.016 266.463 210.952C265.527 211.888 264.784 213 264.278 214.223C263.771 215.446 263.51 216.756 263.51 218.08V308.67C263.509 309.995 263.769 311.306 264.275 312.531C264.781 313.755 265.523 314.867 266.459 315.804C267.395 316.741 268.507 317.485 269.731 317.992C270.954 318.499 272.266 318.76 273.59 318.76H336V208H273.59Z" fill="#407BFF"/>
<path d="M239.79 100.059H145.25C144.303 100.057 143.365 100.243 142.489 100.605C141.614 100.967 140.819 101.498 140.149 102.167C139.479 102.837 138.948 103.633 138.586 104.508C138.224 105.383 138.039 106.321 138.04 107.269V155.799C138.04 156.745 138.227 157.683 138.589 158.558C138.951 159.433 139.482 160.227 140.152 160.897C140.821 161.566 141.616 162.097 142.491 162.46C143.366 162.822 144.303 163.009 145.25 163.009H212L226.47 170.389V162.999H239.81C241.717 162.993 243.544 162.233 244.892 160.883C246.239 159.534 246.997 157.706 247 155.799V107.269C247 105.356 246.24 103.523 244.888 102.17C243.536 100.818 241.702 100.059 239.79 100.059Z" fill="#263238"/>
<path d="M234.39 118.408H161.74C160.645 118.408 159.594 117.973 158.82 117.199C158.045 116.424 157.61 115.374 157.61 114.278C157.61 113.183 158.045 112.133 158.82 111.358C159.594 110.584 160.645 110.148 161.74 110.148H234.39C235.485 110.148 236.536 110.584 237.31 111.358C238.085 112.133 238.52 113.183 238.52 114.278C238.52 115.374 238.085 116.424 237.31 117.199C236.536 117.973 235.485 118.408 234.39 118.408ZM161.74 111.118C160.931 111.164 160.171 111.517 159.614 112.106C159.058 112.694 158.748 113.474 158.748 114.283C158.748 115.093 159.058 115.873 159.614 116.461C160.171 117.05 160.931 117.403 161.74 117.448H234.39C235.199 117.403 235.959 117.05 236.515 116.461C237.072 115.873 237.382 115.093 237.382 114.283C237.382 113.474 237.072 112.694 236.515 112.106C235.959 111.517 235.199 111.164 234.39 111.118H161.74Z" fill="white"/>
<path d="M234.39 132.426H184.39C183.349 132.375 182.368 131.925 181.65 131.17C180.932 130.415 180.531 129.413 180.531 128.371C180.531 127.329 180.932 126.327 181.65 125.573C182.368 124.818 183.349 124.368 184.39 124.316H234.39C235.43 124.368 236.411 124.818 237.13 125.573C237.848 126.327 238.248 127.329 238.248 128.371C238.248 129.413 237.848 130.415 237.13 131.17C236.411 131.925 235.43 132.375 234.39 132.426ZM184.39 125.136C183.95 125.112 183.51 125.177 183.096 125.329C182.682 125.48 182.303 125.715 181.983 126.018C181.663 126.32 181.408 126.685 181.234 127.09C181.06 127.495 180.97 127.931 180.97 128.371C180.97 128.812 181.06 129.248 181.234 129.653C181.408 130.057 181.663 130.422 181.983 130.725C182.303 131.028 182.682 131.262 183.096 131.414C183.51 131.565 183.95 131.631 184.39 131.606H234.39C234.83 131.631 235.27 131.565 235.684 131.414C236.098 131.262 236.476 131.028 236.796 130.725C237.116 130.422 237.371 130.057 237.546 129.653C237.72 129.248 237.81 128.812 237.81 128.371C237.81 127.931 237.72 127.495 237.546 127.09C237.371 126.685 237.116 126.32 236.796 126.018C236.476 125.715 236.098 125.48 235.684 125.329C235.27 125.177 234.83 125.112 234.39 125.136H184.39Z" fill="white"/>
<path d="M234.39 146.428H173C171.949 146.376 170.958 145.922 170.233 145.16C169.507 144.398 169.103 143.386 169.103 142.333C169.103 141.281 169.507 140.269 170.233 139.507C170.958 138.744 171.949 138.29 173 138.238H234.41C235.461 138.29 236.452 138.744 237.178 139.507C237.903 140.269 238.308 141.281 238.308 142.333C238.308 143.386 237.903 144.398 237.178 145.16C236.452 145.922 235.461 146.376 234.41 146.428H234.39ZM173 139.138C172.566 139.114 172.131 139.179 171.722 139.328C171.313 139.478 170.939 139.709 170.623 140.008C170.306 140.307 170.054 140.668 169.882 141.067C169.71 141.467 169.621 141.898 169.621 142.333C169.621 142.769 169.71 143.199 169.882 143.599C170.054 143.999 170.306 144.359 170.623 144.658C170.939 144.957 171.313 145.189 171.722 145.338C172.131 145.488 172.566 145.553 173 145.528H234.41C234.845 145.553 235.28 145.488 235.689 145.338C236.097 145.189 236.471 144.957 236.788 144.658C237.104 144.359 237.356 143.999 237.528 143.599C237.7 143.199 237.789 142.769 237.789 142.333C237.789 141.898 237.7 141.467 237.528 141.067C237.356 140.668 237.104 140.307 236.788 140.008C236.471 139.709 236.097 139.478 235.689 139.328C235.28 139.179 234.845 139.114 234.41 139.138H173Z" fill="white"/>
<path d="M373.66 145.398H265.28C263.368 145.398 261.534 146.158 260.182 147.51C258.829 148.862 258.07 150.696 258.07 152.608V180.438C258.07 181.385 258.256 182.323 258.619 183.198C258.981 184.072 259.512 184.867 260.182 185.537C260.851 186.206 261.646 186.737 262.521 187.1C263.395 187.462 264.333 187.648 265.28 187.648H278.62V194.998L293.08 187.618H373.66C375.572 187.618 377.406 186.859 378.758 185.507C380.11 184.155 380.87 182.321 380.87 180.408V152.608C380.87 150.696 380.11 148.862 378.758 147.51C377.406 146.158 375.572 145.398 373.66 145.398Z" fill="#407BFF"/>
<path opacity="0.7" d="M373.66 145.398H265.28C263.368 145.398 261.534 146.158 260.182 147.51C258.829 148.862 258.07 150.696 258.07 152.608V180.438C258.07 181.385 258.256 182.323 258.619 183.198C258.981 184.072 259.512 184.867 260.182 185.537C260.851 186.206 261.646 186.737 262.521 187.1C263.395 187.462 264.333 187.648 265.28 187.648H278.62V194.998L293.08 187.618H373.66C375.572 187.618 377.406 186.859 378.758 185.507C380.11 184.155 380.87 182.321 380.87 180.408V152.608C380.87 150.696 380.11 148.862 378.758 147.51C377.406 146.158 375.572 145.398 373.66 145.398Z" fill="white"/>
<path d="M343.48 163.608H270.83C269.735 163.608 268.684 163.173 267.91 162.398C267.135 161.623 266.7 160.573 266.7 159.478C266.7 158.382 267.135 157.332 267.91 156.557C268.684 155.783 269.735 155.348 270.83 155.348H343.48C344.576 155.348 345.626 155.783 346.401 156.557C347.175 157.332 347.61 158.382 347.61 159.478C347.61 160.573 347.175 161.623 346.401 162.398C345.626 163.173 344.576 163.608 343.48 163.608ZM270.83 156.318C269.992 156.318 269.188 156.651 268.596 157.243C268.003 157.836 267.67 158.64 267.67 159.478C267.67 160.316 268.003 161.119 268.596 161.712C269.188 162.305 269.992 162.638 270.83 162.638H343.48C344.318 162.638 345.122 162.305 345.715 161.712C346.307 161.119 346.64 160.316 346.64 159.478C346.64 158.64 346.307 157.836 345.715 157.243C345.122 156.651 344.318 156.318 343.48 156.318H270.83Z" fill="white"/>
<path d="M320.87 177.62H270.87C269.796 177.62 268.766 177.193 268.006 176.433C267.247 175.674 266.82 174.644 266.82 173.57C266.82 172.495 267.247 171.465 268.006 170.706C268.766 169.946 269.796 169.52 270.87 169.52H320.87C321.944 169.52 322.974 169.946 323.734 170.706C324.493 171.465 324.92 172.495 324.92 173.57C324.92 174.644 324.493 175.674 323.734 176.433C322.974 177.193 321.944 177.62 320.87 177.62ZM270.87 170.33C270.011 170.33 269.186 170.671 268.579 171.279C267.971 171.886 267.63 172.71 267.63 173.57C267.63 174.429 267.971 175.253 268.579 175.861C269.186 176.468 270.011 176.81 270.87 176.81H320.87C321.729 176.81 322.553 176.468 323.161 175.861C323.768 175.253 324.11 174.429 324.11 173.57C324.11 172.71 323.768 171.886 323.161 171.279C322.553 170.671 321.729 170.33 320.87 170.33H270.87Z" fill="white"/>
<path d="M165.95 339.098H336V356.858H166C164.441 356.858 162.945 356.238 161.842 355.135C160.74 354.033 160.12 352.537 160.12 350.978V344.978C160.12 343.427 160.733 341.939 161.825 340.837C162.917 339.736 164.399 339.111 165.95 339.098Z" fill="#407BFF"/>
<path opacity="0.2" d="M165.95 339.098H336V356.858H166C164.441 356.858 162.945 356.238 161.842 355.135C160.74 354.033 160.12 352.537 160.12 350.978V344.978C160.12 343.427 160.733 341.939 161.825 340.837C162.917 339.736 164.399 339.111 165.95 339.098Z" fill="#263238"/>
<path opacity="0.3" d="M297.55 339.098H336V356.858H297.55C295.99 356.858 294.495 356.238 293.392 355.135C292.289 354.033 291.67 352.537 291.67 350.978V344.978C291.67 343.418 292.289 341.923 293.392 340.82C294.495 339.717 295.99 339.098 297.55 339.098Z" fill="#263238"/>
<path opacity="0.3" d="M305.84 356.867L328.76 381.677C331.42 384.567 335.98 382.517 335.98 378.437V356.867H305.84Z" fill="#407BFF"/>
<path opacity="0.3" d="M196.19 356.867L219.11 381.677C221.78 384.567 226.34 382.517 226.34 378.437V356.867H196.19Z" fill="#407BFF"/>
<path d="M240.63 268.893C240.48 270.753 240.26 272.473 240.02 274.243C239.78 276.013 239.52 277.763 239.21 279.513C238.61 283.023 237.89 286.513 237.01 289.993C236.58 291.723 236.12 293.463 235.59 295.193C235.33 296.063 235.06 296.923 234.76 297.783C234.488 298.708 234.154 299.613 233.76 300.493C233.52 300.983 233.27 301.493 232.94 302.023C232.56 302.693 232.103 303.318 231.58 303.883C231.135 304.356 230.623 304.76 230.06 305.083C229.107 305.62 228.002 305.825 226.92 305.663C226.019 305.517 225.179 305.115 224.5 304.503C224.117 304.148 223.781 303.745 223.5 303.303C222.892 302.242 222.491 301.075 222.32 299.863C222.178 298.87 222.115 297.867 222.13 296.863L226.87 295.863C227.29 296.503 227.68 297.253 228.13 297.863C228.58 298.473 229.03 299.063 229.24 299.073C229.24 299.073 229.29 299.003 229.15 298.833C228.809 298.495 228.367 298.277 227.89 298.213C227.245 298.108 226.584 298.209 226 298.503C225.63 298.693 225.5 298.813 225.44 298.833C225.38 298.853 225.44 298.713 225.44 298.483L225.63 297.613C225.75 296.993 225.95 296.143 226.17 295.353C226.39 294.563 226.56 293.743 226.75 292.933C227.12 291.303 227.48 289.673 227.75 288.023C228.39 284.723 228.95 281.383 229.46 278.023C229.97 274.663 230.46 271.273 230.84 268.023L240.63 268.893Z" fill="#B55B52"/>
<path d="M232 259.001C229.73 262.381 227.45 275.481 227.45 275.481L243.39 282.481C243.39 282.481 247.87 261.151 244.3 257.241C240.62 253.151 234.55 255.211 232 259.001Z" fill="#407BFF"/>
<path opacity="0.2" d="M235.14 267.593C232.97 270.093 231.96 274.063 231.66 277.273L243.43 282.473C244.406 277.674 245.111 272.823 245.54 267.943C242.93 265.163 238.85 263.303 235.14 267.593Z" fill="black"/>
<path d="M158.48 406.88L150.55 401.52L161.64 382.25L169.57 387.61L158.48 406.88Z" fill="#B55B52"/>
<path d="M210.91 414.961L201.73 411.691L204.94 389.711L214.12 392.981L210.91 414.961Z" fill="#B55B52"/>
<path d="M201.22 410.412L211.97 410.862C212.155 410.865 212.332 410.937 212.468 411.062C212.605 411.187 212.691 411.358 212.71 411.542L213.58 419.722C213.594 419.937 213.563 420.153 213.488 420.356C213.413 420.559 213.297 420.744 213.146 420.898C212.995 421.053 212.813 421.174 212.612 421.254C212.411 421.334 212.196 421.37 211.98 421.362C208.23 421.142 206.43 421.222 201.71 421.032C198.8 420.902 192.89 421.632 188.88 421.462C184.87 421.292 184.81 417.322 186.5 417.032C194.06 415.722 196.99 412.952 199.6 410.942C200.061 410.58 200.634 410.392 201.22 410.412Z" fill="#263238"/>
<path d="M151.63 398.663L160.49 404.763C160.65 404.868 160.764 405.029 160.81 405.214C160.857 405.399 160.832 405.595 160.74 405.763L156.93 413.463C156.828 413.654 156.686 413.821 156.515 413.953C156.343 414.086 156.145 414.18 155.934 414.23C155.724 414.28 155.505 414.285 155.292 414.244C155.079 414.203 154.877 414.117 154.7 413.993C151.7 411.813 150.6 410.993 146.7 408.313C144.31 406.663 138.7 403.263 135.38 400.983C132.06 398.703 134.32 395.163 135.9 395.813C142.99 398.743 146.69 398.583 149.97 398.263C150.553 398.205 151.138 398.346 151.63 398.663Z" fill="#263238"/>
<g opacity="0.2">
<path d="M161.63 382.25L155.11 393.6L163.53 398.11L169.57 387.62L161.63 382.25Z" fill="black"/>
<path d="M214.12 392.991L204.93 389.711L203 403.041L212.38 404.941L214.12 392.991Z" fill="black"/>
</g>
<path d="M232.3 263.341C232.41 270.541 233.85 284.971 239.3 313.851L278.17 312.851C277.11 297.051 276.84 287.291 283.57 254.631C278.096 253.648 272.558 253.063 267 252.881C261.11 252.61 255.208 252.76 249.34 253.331C245.8 253.751 242.03 254.401 239.03 254.981C237.105 255.363 235.377 256.41 234.146 257.938C232.916 259.466 232.262 261.379 232.3 263.341Z" fill="#407BFF"/>
<path opacity="0.2" d="M282.56 259.672C279.147 261.16 276.39 263.835 274.8 267.202C272.92 271.492 277.63 280.312 278.75 282.292C279.51 276.192 280.73 268.932 282.56 259.672Z" fill="black"/>
<path d="M254.77 212.201C250.9 216.531 247.4 234.871 259.41 243.201C258.89 250.851 277.22 245.811 279.41 236.461C281.47 227.821 266.39 199.191 254.77 212.201Z" fill="#263238"/>
<path d="M270.23 244.713C270.16 244.713 270.093 244.686 270.043 244.637C269.992 244.589 269.963 244.523 269.96 244.453C269.957 244.38 269.983 244.309 270.031 244.255C270.08 244.201 270.148 244.168 270.22 244.163C277.28 243.843 279.6 239.983 280.3 236.803C281.93 229.403 276.67 219.603 271.22 216.803C271.188 216.786 271.16 216.763 271.137 216.735C271.115 216.708 271.098 216.675 271.087 216.641C271.077 216.607 271.074 216.57 271.078 216.535C271.082 216.499 271.093 216.464 271.11 216.433C271.144 216.371 271.201 216.325 271.268 216.305C271.335 216.284 271.408 216.291 271.47 216.323C277.09 219.243 282.47 229.323 280.83 236.953C280.09 240.313 277.65 244.403 270.24 244.733L270.23 244.713Z" fill="#263238"/>
<path d="M272 246.001C270.915 245.995 269.833 245.912 268.76 245.751C268.722 245.75 268.684 245.741 268.65 245.724C268.615 245.708 268.585 245.684 268.56 245.654C268.536 245.625 268.518 245.591 268.508 245.554C268.497 245.517 268.495 245.479 268.501 245.441C268.506 245.403 268.52 245.367 268.541 245.335C268.561 245.303 268.589 245.275 268.621 245.255C268.653 245.234 268.689 245.22 268.727 245.214C268.765 245.209 268.803 245.211 268.84 245.221C276 246.221 280.67 243.871 282 238.561C283.91 230.871 278.2 219.261 271.28 216.751C271.241 216.745 271.204 216.729 271.171 216.707C271.139 216.685 271.112 216.655 271.092 216.621C271.072 216.587 271.06 216.549 271.056 216.51C271.052 216.47 271.057 216.431 271.071 216.393C271.084 216.356 271.106 216.322 271.133 216.294C271.161 216.266 271.195 216.245 271.232 216.231C271.269 216.218 271.309 216.212 271.348 216.216C271.388 216.219 271.426 216.231 271.46 216.251C278.74 218.881 284.53 230.631 282.52 238.691C281.78 241.591 279.46 246.001 272 246.001Z" fill="#263238"/>
<path d="M264.81 235.184C263.81 240.894 262.95 249.184 267.02 252.884C267.02 252.884 259.11 257.224 250.79 270.984C243.54 259.674 249.36 253.334 249.36 253.334C255.66 251.664 255.43 249.094 254.21 244.714L264.81 235.184Z" fill="#B55B52"/>
<path d="M254.84 260.263C254.68 260.896 254.334 261.467 253.845 261.9C253.356 262.334 252.748 262.61 252.1 262.693C250.94 262.693 250.28 261.693 250.64 260.333C250.796 259.697 251.141 259.124 251.631 258.69C252.12 258.256 252.73 257.981 253.38 257.903C254.54 257.883 255.19 258.933 254.84 260.263Z" fill="white"/>
<path d="M254 259.001C253.968 259.001 253.936 258.994 253.906 258.981C253.876 258.969 253.849 258.95 253.827 258.927C253.804 258.903 253.787 258.876 253.775 258.845C253.764 258.815 253.759 258.783 253.76 258.751C253.76 258.684 253.786 258.621 253.833 258.574C253.88 258.527 253.944 258.501 254.01 258.501C254.23 258.501 260.15 258.431 266.89 252.691C266.915 252.669 266.944 252.652 266.975 252.642C267.007 252.631 267.04 252.627 267.073 252.63C267.106 252.632 267.138 252.641 267.167 252.655C267.197 252.67 267.223 252.691 267.245 252.716C267.267 252.74 267.283 252.769 267.294 252.801C267.304 252.832 267.308 252.865 267.306 252.898C267.304 252.931 267.295 252.963 267.28 252.993C267.265 253.023 267.245 253.049 267.22 253.071C260.39 258.861 254.54 259.001 254 259.001Z" fill="white"/>
<path d="M252.74 258.902C252.74 258.902 249.15 258.282 249.15 253.332C249.15 253.266 249.176 253.202 249.223 253.155C249.27 253.108 249.334 253.082 249.4 253.082C249.466 253.082 249.53 253.108 249.577 253.155C249.624 253.202 249.65 253.266 249.65 253.332C249.65 257.842 252.65 258.332 252.82 258.402C252.885 258.414 252.942 258.451 252.98 258.506C253.017 258.56 253.032 258.627 253.02 258.692C253.01 258.757 252.975 258.815 252.923 258.854C252.87 258.893 252.805 258.911 252.74 258.902Z" fill="white"/>
<path opacity="0.2" d="M260.49 239.07L254.22 244.7C254.516 245.721 254.723 246.764 254.84 247.82C257.25 247.41 261.01 245.25 261.46 242.61C261.67 241.36 260.71 239.65 260.49 239.07Z" fill="black"/>
<path d="M239.21 209.402C235.31 213.762 230.4 228.882 242.49 237.222C241.97 244.922 259.77 238.822 262.96 229.682C266.15 220.542 250.91 196.302 239.21 209.402Z" fill="#263238"/>
<path d="M265.83 220.413C267.39 229.783 268.26 233.713 264.68 239.533C259.3 248.293 247.45 248.153 243.12 239.443C239.22 231.593 237.32 217.583 245.52 211.823C247.325 210.555 249.423 209.768 251.616 209.534C253.809 209.3 256.025 209.629 258.056 210.488C260.088 211.347 261.867 212.709 263.227 214.445C264.587 216.181 265.483 218.235 265.83 220.413Z" fill="#B55B52"/>
<path d="M243.44 210.682C244.01 215.682 253.86 228.542 266.16 225.552C270.81 230.302 277.09 215.362 273.05 208.072C269.01 200.782 241.73 195.642 243.44 210.682Z" fill="#263238"/>
<path d="M239.31 313.853C220.41 312.593 181.55 317.383 175.55 335.853C166.55 363.673 156.05 387.423 156.05 387.423L168.19 393.233C168.19 393.233 191.54 364.893 198.72 346.423C212.72 347.983 231.28 343.623 236.87 342.933C257.39 340.423 265.8 327.143 267.77 313.113L239.31 313.853Z" fill="#263238"/>
<path opacity="0.2" d="M223.64 323.203C208.46 322.973 190.05 332.593 192.12 359.523C194.657 355.338 196.864 350.962 198.72 346.433C203.463 346.869 208.237 346.869 212.98 346.433C217.77 335.823 227.29 323.263 223.64 323.203Z" fill="black"/>
<path d="M167.28 396.26L153.82 389.22L155.07 384.41L170.42 391.77L167.28 396.26Z" fill="#407BFF"/>
<path opacity="0.4" d="M167.28 396.26L153.82 389.22L155.07 384.41L170.42 391.77L167.28 396.26Z" fill="black"/>
<path d="M249.57 313.592C249.57 313.592 202.15 324.342 202.3 338.502C202.63 368.782 202.03 398.052 202.03 398.052L215 400.622C215 400.622 225.81 366.342 225.9 347.992C246.16 340.412 285.9 357.592 278.21 312.852L249.57 313.592Z" fill="#263238"/>
<path d="M216.29 402.733L200.36 399.793L199.59 394.473L218.48 397.093L216.29 402.733Z" fill="#407BFF"/>
<path opacity="0.4" d="M216.29 402.733L200.36 399.793L199.59 394.473L218.48 397.093L216.29 402.733Z" fill="black"/>
<path d="M251.66 226.261C251.83 227.011 251.57 227.711 251.08 227.821C250.59 227.931 250.08 227.421 249.88 226.671C249.68 225.921 249.96 225.211 250.45 225.101C250.94 224.991 251.49 225.501 251.66 226.261Z" fill="#263238"/>
<path d="M243.15 228.222C243.33 228.972 243.07 229.672 242.58 229.782C242.09 229.892 241.58 229.382 241.37 228.632C241.16 227.882 241.46 227.172 241.95 227.062C242.44 226.952 243 227.462 243.15 228.222Z" fill="#263238"/>
<path d="M242.17 227.053L240.25 226.953C240.25 226.953 241.5 228.143 242.17 227.053Z" fill="#263238"/>
<path d="M246.09 229C245.816 230.871 245.284 232.695 244.51 234.42C244.957 234.606 245.44 234.692 245.924 234.671C246.407 234.65 246.881 234.524 247.31 234.3L246.09 229Z" fill="#A02724"/>
<path d="M252.09 236.28C251.736 236.418 251.371 236.529 251 236.61C250.971 236.618 250.941 236.619 250.911 236.615C250.882 236.61 250.854 236.599 250.828 236.583C250.803 236.567 250.781 236.547 250.764 236.522C250.748 236.497 250.736 236.47 250.73 236.44C250.723 236.411 250.721 236.381 250.726 236.352C250.73 236.322 250.741 236.294 250.757 236.269C250.773 236.244 250.794 236.222 250.818 236.205C250.843 236.188 250.871 236.176 250.9 236.17C251.841 235.976 252.723 235.562 253.473 234.963C254.224 234.363 254.822 233.595 255.22 232.72C255.244 232.668 255.287 232.626 255.341 232.603C255.395 232.581 255.455 232.58 255.509 232.6C255.564 232.621 255.609 232.661 255.635 232.713C255.661 232.765 255.666 232.825 255.65 232.88C255.312 233.655 254.823 234.354 254.212 234.938C253.6 235.522 252.879 235.978 252.09 236.28Z" fill="#263238"/>
<path d="M269.5 227.652C269.215 229.468 268.227 231.099 266.75 232.192C264.75 233.622 262.95 232.062 262.8 229.762C262.65 227.692 263.51 224.452 265.8 223.932C266.311 223.823 266.841 223.844 267.341 223.992C267.842 224.141 268.297 224.413 268.665 224.783C269.033 225.153 269.303 225.61 269.448 226.111C269.594 226.612 269.612 227.142 269.5 227.652Z" fill="#B55B52"/>
<path d="M252.94 223.004C252.847 223.024 252.751 223.017 252.662 222.983C252.573 222.949 252.496 222.89 252.44 222.814C251.3 221.054 248.6 220.934 248.57 220.934C248.45 220.928 248.336 220.876 248.254 220.788C248.172 220.7 248.127 220.584 248.13 220.464C248.135 220.343 248.187 220.23 248.275 220.148C248.363 220.065 248.48 220.021 248.6 220.024C248.73 220.024 251.8 220.164 253.2 222.314C253.233 222.363 253.257 222.419 253.268 222.478C253.28 222.537 253.28 222.597 253.267 222.656C253.255 222.715 253.232 222.77 253.198 222.82C253.164 222.869 253.12 222.911 253.07 222.944L252.94 223.004Z" fill="#263238"/>
<path d="M238.66 224.841C238.567 224.884 238.462 224.893 238.363 224.868C238.264 224.843 238.177 224.785 238.115 224.703C238.053 224.622 238.021 224.522 238.024 224.42C238.027 224.318 238.064 224.22 238.13 224.141C238.554 223.56 239.111 223.09 239.755 222.769C240.399 222.449 241.111 222.289 241.83 222.301C241.889 222.305 241.947 222.321 242 222.347C242.053 222.373 242.101 222.41 242.14 222.454C242.179 222.499 242.209 222.551 242.228 222.607C242.247 222.663 242.254 222.722 242.25 222.781C242.246 222.841 242.231 222.898 242.205 222.952C242.178 223.005 242.142 223.052 242.097 223.091C242.053 223.13 242.001 223.16 241.945 223.179C241.889 223.198 241.829 223.206 241.77 223.201C241.2 223.201 240.638 223.336 240.131 223.595C239.623 223.854 239.184 224.23 238.85 224.691C238.802 224.758 238.736 224.81 238.66 224.841Z" fill="#263238"/>
<path d="M196.16 411.451C196.128 411.43 196.101 411.403 196.08 411.371C195.926 411.215 195.814 411.021 195.757 410.809C195.699 410.597 195.696 410.374 195.75 410.161C195.767 410.024 195.821 409.895 195.905 409.785C195.989 409.676 196.102 409.592 196.23 409.541C197.36 409.081 200.23 411.081 200.51 411.301C200.547 411.328 200.575 411.365 200.591 411.407C200.607 411.45 200.61 411.497 200.6 411.541C200.589 411.584 200.567 411.622 200.535 411.652C200.503 411.683 200.463 411.703 200.42 411.711C199.21 412.001 197.08 412.211 196.16 411.451ZM199.79 411.361C198.64 410.601 197 409.721 196.4 409.961C196.343 409.983 196.293 410.021 196.257 410.071C196.222 410.121 196.202 410.18 196.2 410.241C196.158 410.382 196.154 410.531 196.189 410.673C196.224 410.816 196.297 410.946 196.4 411.051C196.86 411.531 198.11 411.621 199.79 411.361Z" fill="#263238"/>
<path d="M200 411.472C199.09 410.712 197.77 408.882 198 407.922C198.043 407.747 198.145 407.591 198.289 407.482C198.433 407.373 198.61 407.317 198.79 407.322C198.972 407.299 199.156 407.318 199.329 407.377C199.502 407.436 199.66 407.533 199.79 407.662C200.79 408.662 200.69 411.382 200.68 411.502C200.679 411.541 200.667 411.58 200.646 411.613C200.625 411.647 200.595 411.674 200.56 411.692C200.527 411.711 200.489 411.721 200.45 411.721C200.411 411.721 200.374 411.711 200.34 411.692C200.221 411.628 200.107 411.555 200 411.472ZM199.37 407.942C199.219 407.817 199.025 407.756 198.83 407.772C198.54 407.772 198.47 407.922 198.44 408.032C198.29 408.682 199.31 410.272 200.19 411.032C200.19 410.112 200.02 408.552 199.42 407.982L199.37 407.942Z" fill="#263238"/>
<path d="M147.72 398.004C147.001 397.6 146.443 396.961 146.14 396.194C146.091 395.994 146.092 395.786 146.143 395.587C146.193 395.389 146.292 395.205 146.43 395.054C146.507 394.955 146.608 394.877 146.724 394.828C146.839 394.779 146.965 394.76 147.09 394.774C148.42 394.914 150.45 398.684 150.68 399.114C150.706 399.152 150.72 399.197 150.72 399.244C150.72 399.29 150.706 399.335 150.68 399.374C150.647 399.408 150.605 399.431 150.558 399.44C150.511 399.449 150.463 399.443 150.42 399.424C149.479 399.034 148.575 398.558 147.72 398.004ZM147.43 395.404C147.318 395.311 147.183 395.249 147.04 395.224C146.99 395.217 146.939 395.225 146.893 395.246C146.847 395.268 146.808 395.301 146.78 395.344C146.687 395.442 146.621 395.563 146.586 395.693C146.551 395.824 146.549 395.962 146.58 396.094C146.76 396.854 148.01 397.814 149.95 398.734C149.31 397.488 148.457 396.365 147.43 395.414V395.404Z" fill="#263238"/>
<path d="M150.35 399.412C150.35 399.412 150.35 399.412 150.29 399.342C149.64 398.272 148.95 395.342 149.71 394.492C149.89 394.312 150.22 394.152 150.78 394.492C150.975 394.596 151.147 394.738 151.287 394.91C151.426 395.082 151.529 395.28 151.59 395.492C152.01 396.992 150.73 399.242 150.68 399.342C150.659 399.377 150.63 399.405 150.595 399.424C150.56 399.443 150.52 399.453 150.48 399.452C150.434 399.453 150.388 399.439 150.35 399.412ZM150.68 394.922L150.56 394.852C150.19 394.652 150.08 394.772 150.04 394.852C149.58 395.322 149.92 397.532 150.48 398.772C151.027 397.829 151.261 396.737 151.15 395.652C151.092 395.358 150.924 395.097 150.68 394.922Z" fill="#263238"/>
<path d="M250.68 225.092L248.75 224.992C248.75 224.992 250 226.182 250.68 225.092Z" fill="#263238"/>
<path d="M278.7 310.55L279.79 314.01C279.93 314.27 279.62 314.56 279.17 314.57L239.17 315.57C238.82 315.57 238.53 315.41 238.5 315.19L238.06 311.72C238.06 311.48 238.33 311.27 238.71 311.26L278.07 310.26C278.191 310.25 278.313 310.271 278.423 310.322C278.534 310.373 278.629 310.452 278.7 310.55Z" fill="white"/>
<path d="M273.4 315.1H274.46C274.67 315.1 274.82 314.98 274.8 314.85L274.19 310.34C274.19 310.21 273.99 310.1 273.78 310.11H272.78C272.57 310.11 272.41 310.23 272.43 310.36L273.04 314.86C273 315 273.19 315.1 273.4 315.1Z" fill="#263238"/>
<path d="M242.13 315.9H243.19C243.4 315.9 243.56 315.78 243.54 315.65L242.93 311.14C242.93 311.01 242.72 310.91 242.51 310.91H241.51C241.3 310.91 241.14 311.03 241.16 311.16L241.77 315.67C241.74 315.8 241.92 315.9 242.13 315.9Z" fill="#263238"/>
<path d="M257.7 315.502H258.76C258.97 315.502 259.12 315.382 259.11 315.252L258.5 310.742C258.5 310.612 258.29 310.512 258.08 310.512H257.03C256.82 310.512 256.66 310.632 256.68 310.762L257.29 315.272C257.31 315.402 257.49 315.502 257.7 315.502Z" fill="#263238"/>
<path d="M253.56 292.332L243.88 288.672L247.13 297.852C247.13 297.852 253.19 298.852 255.62 295.702L253.56 292.332Z" fill="#B55B52"/>
<path d="M287.57 267.801C287.98 269.191 288.25 270.371 288.51 271.661C288.77 272.951 289 274.201 289.18 275.481C289.565 278.086 289.752 280.717 289.74 283.351C289.762 286.159 289.426 288.958 288.74 291.681C288.541 292.417 288.3 293.141 288.02 293.851C287.682 294.794 287.221 295.688 286.65 296.511C285.458 298.11 283.849 299.352 282 300.101C280.546 300.693 279.019 301.09 277.46 301.281C276.078 301.471 274.684 301.555 273.29 301.531C270.688 301.481 268.094 301.234 265.53 300.791C260.577 299.944 255.713 298.641 251 296.901L252.3 292.231C256.935 292.994 261.609 293.501 266.3 293.751C268.543 293.867 270.791 293.837 273.03 293.661C274.91 293.566 276.757 293.129 278.48 292.371C278.89 292.193 279.239 291.897 279.48 291.521C279.675 290.891 279.832 290.25 279.95 289.601C280.266 287.591 280.357 285.551 280.22 283.521C280.1 281.319 279.86 279.126 279.5 276.951C279.32 275.841 279.13 274.731 278.91 273.631C278.69 272.531 278.42 271.371 278.2 270.421L287.57 267.801Z" fill="#B55B52"/>
<path d="M283.58 254.633C287.5 255.713 290.52 271.633 290.52 271.633L275.67 279.003C275.67 279.003 271.9 269.153 273.4 264.073C275 258.783 279.1 253.393 283.58 254.633Z" fill="#407BFF"/>
<path d="M241.26 302.592H232.53C232.207 302.576 231.898 302.457 231.647 302.254C231.395 302.051 231.214 301.774 231.13 301.462L226.59 283.002C226.544 282.871 226.531 282.73 226.552 282.593C226.573 282.456 226.627 282.326 226.71 282.214C226.793 282.102 226.902 282.013 227.028 281.953C227.153 281.894 227.291 281.866 227.43 281.872H236.17C236.493 281.888 236.802 282.006 237.054 282.209C237.305 282.412 237.486 282.69 237.57 283.002L242.11 301.452C242.156 301.584 242.169 301.726 242.147 301.865C242.126 302.003 242.071 302.134 241.987 302.247C241.903 302.359 241.793 302.449 241.666 302.51C241.54 302.57 241.4 302.598 241.26 302.592Z" fill="#263238"/>
<path d="M222.94 291.922L228.26 289.672L227.09 300.002C226.586 300.188 226.068 300.332 225.54 300.432C224.763 300.575 223.963 300.509 223.219 300.242C222.476 299.975 221.817 299.516 221.309 298.911C220.801 298.307 220.462 297.578 220.327 296.8C220.192 296.022 220.265 295.222 220.54 294.482C220.747 293.916 221.067 293.397 221.479 292.957C221.891 292.517 222.388 292.165 222.94 291.922Z" fill="#B55B52"/>
<path d="M232.97 291.022L231.99 298.892L227.09 299.992L228.26 289.672L232.97 291.022Z" fill="#B55B52"/>
<path d="M236.2 291.072L239.33 298.612L247.13 297.852L243.88 288.672L236.2 291.072Z" fill="#B55B52"/>
</svg>
