<svg width="212" height="81" viewBox="0 0 212 81" fill="none" xmlns="http://www.w3.org/2000/svg">
<path fill-rule="evenodd" clip-rule="evenodd" d="M28.8654 18.7325C25.2758 17.3307 21.3239 17.153 17.623 18.2269C13.9221 19.3008 10.6791 21.5662 8.3973 24.6716C6.11552 27.777 4.92257 31.5487 5.00356 35.4015C5.08456 39.2542 6.43498 42.9725 8.84525 45.9792C11.2555 48.986 14.5909 51.1131 18.3336 52.0305C22.0764 52.9479 26.0174 52.6043 29.5449 51.0529C33.0724 49.5015 35.9892 46.8292 37.8426 43.4506C39.6961 40.072 40.3825 36.1761 39.7954 32.3675C39.6946 31.7121 39.8583 31.0435 40.2505 30.5088C40.6427 29.974 41.2312 29.617 41.8867 29.5162C42.5421 29.4155 43.2107 29.5792 43.7454 29.9714C44.2801 30.3635 44.6371 30.9521 44.7379 31.6075C45.4919 36.5042 44.6086 41.5128 42.2252 45.8561C39.8417 50.1995 36.0913 53.6348 31.5559 55.6288C27.0206 57.6229 21.9539 58.0643 17.142 56.8845C12.3302 55.7047 8.04225 52.9697 4.94365 49.1039C1.84505 45.2381 0.109026 40.4576 0.00496638 35.5043C-0.0990932 30.551 1.43463 25.7019 4.36814 21.7094C7.30165 17.7168 11.4709 14.8042 16.229 13.4233C20.987 12.0425 26.0678 12.2707 30.6829 14.0725C30.9929 14.1888 31.2767 14.3654 31.5179 14.5923C31.7591 14.8191 31.9528 15.0916 32.0878 15.394C32.2228 15.6963 32.2964 16.0224 32.3043 16.3534C32.3122 16.6844 32.2543 17.0137 32.134 17.3221C32.0136 17.6306 31.8332 17.912 31.6032 18.1502C31.3731 18.3883 31.0981 18.5784 30.794 18.7093C30.4899 18.8403 30.1629 18.9096 29.8318 18.9131C29.5007 18.9167 29.1722 18.8544 28.8654 18.73V18.7325Z" fill="#F08BB4"/>
<path fill-rule="evenodd" clip-rule="evenodd" d="M20.0005 77.5325V57.5325C20.0005 56.8694 20.2639 56.2335 20.7327 55.7647C21.2016 55.2959 21.8374 55.0325 22.5005 55.0325C23.1635 55.0325 23.7994 55.2959 24.2683 55.7647C24.7371 56.2335 25.0005 56.8694 25.0005 57.5325V77.5325C25.0005 78.1955 24.7371 78.8314 24.2683 79.3002C23.7994 79.7691 23.1635 80.0325 22.5005 80.0325C21.8374 80.0325 21.2016 79.7691 20.7327 79.3002C20.2639 78.8314 20.0005 78.1955 20.0005 77.5325Z" fill="#F08BB4"/>
<path fill-rule="evenodd" clip-rule="evenodd" d="M12.5005 65.0325C12.5005 64.3695 12.7639 63.7336 13.2327 63.2647C13.7016 62.7959 14.3374 62.5325 15.0005 62.5325H30.0005C30.6635 62.5325 31.2994 62.7959 31.7683 63.2647C32.2371 63.7336 32.5005 64.3695 32.5005 65.0325C32.5005 65.6956 32.2371 66.3314 31.7683 66.8003C31.2994 67.2691 30.6635 67.5325 30.0005 67.5325H15.0005C14.3374 67.5325 13.7016 67.2691 13.2327 66.8003C12.7639 66.3314 12.5005 65.6956 12.5005 65.0325ZM57.2555 18.19C54.485 17.4079 51.5643 17.3213 48.7523 17.938C45.9403 18.5546 43.3238 19.8555 41.1349 21.7253C38.9459 23.595 37.252 25.9759 36.2033 28.6569C35.1547 31.338 34.7836 34.2363 35.123 37.095C35.1636 37.4219 35.1391 37.7536 35.0511 38.071C34.9631 38.3884 34.8132 38.6853 34.61 38.9446C34.4069 39.2039 34.1545 39.4205 33.8674 39.582C33.5803 39.7434 33.2641 39.8466 32.937 39.8854C32.6099 39.9243 32.2784 39.8982 31.9614 39.8085C31.6445 39.7188 31.3484 39.5674 31.0901 39.3629C30.8319 39.1584 30.6166 38.9049 30.4566 38.617C30.2966 38.329 30.1952 38.0123 30.158 37.685C29.5739 32.7651 30.63 27.7899 33.1625 23.5316C35.695 19.2733 39.5622 15.9699 44.164 14.1341C48.7658 12.2983 53.8449 12.0327 58.6131 13.3785C63.3812 14.7244 67.5719 17.6064 70.5347 21.5774C73.4975 25.5484 75.0667 30.3862 74.999 35.3402C74.9312 40.2942 73.2302 45.0874 70.1599 48.9758C67.0896 52.8643 62.8217 55.6306 58.0185 56.8455C53.2153 58.0604 48.1454 57.656 43.5955 55.695C43.2939 55.5652 43.0209 55.3772 42.792 55.1418C42.5631 54.9065 42.3828 54.6283 42.2614 54.3233C42.0162 53.7072 42.0258 53.019 42.288 52.41C42.5502 51.801 43.0436 51.3211 43.6597 51.0759C44.2758 50.8307 44.964 50.8403 45.573 51.1025C47.7737 52.0563 50.1469 52.5475 52.5453 52.5458C54.9438 52.5441 57.3163 52.0495 59.5156 51.0926C61.715 50.1357 63.6941 48.737 65.3303 46.9833C66.9665 45.2296 68.2249 43.1584 69.0272 40.8981C69.8295 38.6378 70.1586 36.2367 69.9943 33.8439C69.8299 31.4511 69.1755 29.1176 68.0717 26.9882C66.9678 24.8588 65.4381 22.9791 63.5775 21.4656C61.7168 19.9521 59.565 18.8372 57.2555 18.19V18.19Z" fill="#5B8FF9"/>
<path fill-rule="evenodd" clip-rule="evenodd" d="M66.9829 23.0499C66.5143 22.5811 66.251 21.9453 66.251 21.2824C66.251 20.6195 66.5143 19.9837 66.9829 19.5149L85.7329 0.76493C85.9636 0.526154 86.2394 0.335697 86.5444 0.204675C86.8494 0.0736524 87.1775 0.00468792 87.5094 0.00180338C87.8414 -0.00108117 88.1706 0.0621738 88.4778 0.187876C88.7851 0.313578 89.0642 0.499211 89.2989 0.733943C89.5337 0.968674 89.7193 1.2478 89.845 1.55504C89.9707 1.86229 90.0339 2.19148 90.0311 2.52343C90.0282 2.85538 89.9592 3.18343 89.8282 3.48844C89.6972 3.79345 89.5067 4.06931 89.2679 4.29993L70.5179 23.0499C70.0491 23.5186 69.4134 23.7819 68.7504 23.7819C68.0875 23.7819 67.4518 23.5186 66.9829 23.0499V23.0499Z" fill="#5B8FF9"/>
<path fill-rule="evenodd" clip-rule="evenodd" d="M87.3105 17.5325C86.9821 17.5283 86.6579 17.4594 86.3562 17.3298C86.0545 17.2002 85.7813 17.0125 85.5521 16.7773C85.323 16.5422 85.1424 16.2642 85.0208 15.9592C84.8991 15.6543 84.8387 15.3283 84.843 15L84.968 5.065L75.033 5.19C74.3699 5.19862 73.7306 4.94349 73.2557 4.48075C72.7807 4.018 72.5091 3.38554 72.5005 2.7225C72.4918 2.05946 72.747 1.42015 73.2097 0.945214C73.6724 0.470278 74.3049 0.198619 74.968 0.189999L90.033 0L89.843 15.0625C89.839 15.391 89.7704 15.7156 89.641 16.0175C89.5116 16.3195 89.3239 16.593 89.0887 16.8224C88.8535 17.0518 88.5754 17.2326 88.2702 17.3545C87.9651 17.4763 87.639 17.5368 87.3105 17.5325V17.5325Z" fill="#5B8FF9"/>
<rect x="12.5005" y="62.5325" width="20" height="5" rx="2.5" fill="#F08BB4"/>
<path d="M103.688 32.28V37.88H111.208V41.432H103.688V47.352H112.168V51H99.208V28.632H112.168V32.28H103.688ZM115.087 42.072C115.087 40.28 115.439 38.6907 116.143 37.304C116.869 35.9173 117.85 34.8507 119.087 34.104C120.325 33.3573 121.701 32.984 123.215 32.984C124.367 32.984 125.466 33.24 126.511 33.752C127.557 34.2427 128.389 34.904 129.007 35.736V27.32H133.551V51H129.007V48.376C128.453 49.2507 127.674 49.9547 126.671 50.488C125.669 51.0213 124.506 51.288 123.183 51.288C121.69 51.288 120.325 50.904 119.087 50.136C117.85 49.368 116.869 48.2907 116.143 46.904C115.439 45.496 115.087 43.8853 115.087 42.072ZM129.039 42.136C129.039 41.048 128.826 40.12 128.399 39.352C127.973 38.5627 127.397 37.9653 126.671 37.56C125.946 37.1333 125.167 36.92 124.335 36.92C123.503 36.92 122.735 37.1227 122.031 37.528C121.327 37.9333 120.751 38.5307 120.303 39.32C119.877 40.088 119.663 41.0053 119.663 42.072C119.663 43.1387 119.877 44.0773 120.303 44.888C120.751 45.6773 121.327 46.2853 122.031 46.712C122.757 47.1387 123.525 47.352 124.335 47.352C125.167 47.352 125.946 47.1493 126.671 46.744C127.397 46.3173 127.973 45.72 128.399 44.952C128.826 44.1627 129.039 43.224 129.039 42.136ZM154.663 33.272V51H150.151V48.76C149.575 49.528 148.817 50.136 147.879 50.584C146.961 51.0107 145.959 51.224 144.871 51.224C143.484 51.224 142.257 50.936 141.191 50.36C140.124 49.7627 139.281 48.8987 138.663 47.768C138.065 46.616 137.767 45.2507 137.767 43.672V33.272H142.247V43.032C142.247 44.44 142.599 45.528 143.303 46.296C144.007 47.0427 144.967 47.416 146.183 47.416C147.42 47.416 148.391 47.0427 149.095 46.296C149.799 45.528 150.151 44.44 150.151 43.032V33.272H154.663ZM165.867 51.288C164.416 51.288 163.115 51.032 161.963 50.52C160.811 49.9867 159.894 49.272 159.211 48.376C158.55 47.48 158.187 46.488 158.123 45.4H162.635C162.72 46.0827 163.051 46.648 163.627 47.096C164.224 47.544 164.96 47.768 165.835 47.768C166.688 47.768 167.35 47.5973 167.819 47.256C168.31 46.9147 168.555 46.4773 168.555 45.944C168.555 45.368 168.256 44.9413 167.659 44.664C167.083 44.3653 166.155 44.0453 164.875 43.704C163.552 43.384 162.464 43.0533 161.611 42.712C160.779 42.3707 160.054 41.848 159.435 41.144C158.838 40.44 158.539 39.4907 158.539 38.296C158.539 37.3147 158.816 36.4187 159.371 35.608C159.947 34.7973 160.758 34.1573 161.803 33.688C162.87 33.2187 164.118 32.984 165.547 32.984C167.659 32.984 169.344 33.5173 170.603 34.584C171.862 35.6293 172.555 37.048 172.683 38.84H168.395C168.331 38.136 168.032 37.5813 167.499 37.176C166.987 36.7493 166.294 36.536 165.419 36.536C164.608 36.536 163.979 36.6853 163.531 36.984C163.104 37.2827 162.891 37.6987 162.891 38.232C162.891 38.8293 163.19 39.288 163.787 39.608C164.384 39.9067 165.312 40.216 166.571 40.536C167.851 40.856 168.907 41.1867 169.739 41.528C170.571 41.8693 171.286 42.4027 171.883 43.128C172.502 43.832 172.822 44.7707 172.843 45.944C172.843 46.968 172.555 47.8853 171.979 48.696C171.424 49.5067 170.614 50.1467 169.547 50.616C168.502 51.064 167.275 51.288 165.867 51.288ZM193.001 41.752C193.001 42.392 192.958 42.968 192.873 43.48H179.913C180.019 44.76 180.467 45.7627 181.257 46.488C182.046 47.2133 183.017 47.576 184.169 47.576C185.833 47.576 187.017 46.8613 187.721 45.432H192.553C192.041 47.1387 191.059 48.5467 189.609 49.656C188.158 50.744 186.377 51.288 184.265 51.288C182.558 51.288 181.022 50.9147 179.657 50.168C178.313 49.4 177.257 48.3227 176.489 46.936C175.742 45.5493 175.368 43.9493 175.368 42.136C175.368 40.3013 175.742 38.6907 176.489 37.304C177.235 35.9173 178.281 34.8507 179.625 34.104C180.969 33.3573 182.515 32.984 184.265 32.984C185.95 32.984 187.454 33.3467 188.777 34.072C190.121 34.7973 191.155 35.832 191.881 37.176C192.627 38.4987 193.001 40.024 193.001 41.752ZM188.361 40.472C188.339 39.32 187.923 38.4027 187.113 37.72C186.302 37.016 185.31 36.664 184.137 36.664C183.027 36.664 182.089 37.0053 181.321 37.688C180.574 38.3493 180.115 39.2773 179.945 40.472H188.361ZM206.063 51L202.415 45.496L199.183 51H194.383L200.175 42.104L194.319 33.272H199.375L202.991 38.744L206.255 33.272H211.055L205.231 42.104L211.119 51H206.063Z" fill="black"/>
</svg>
